<svg width="180" height="180" viewBox="0 0 180 180" fill="none" xmlns="http://www.w3.org/2000/svg">
<path d="M151.291 50.6246H137.333L103.088 84.8546C104.268 87.8605 104.376 91.1809 103.395 94.2574C102.414 97.3339 100.404 99.9789 97.7027 101.748C95.0011 103.516 91.7729 104.301 88.561 103.969C85.349 103.638 82.3491 102.21 80.0659 99.9268C77.7826 97.6436 76.3551 94.6437 76.0235 91.4317C75.692 88.2198 76.4765 84.9916 78.2451 82.29C80.0138 79.5884 82.6588 77.5782 85.7353 76.5975C88.8118 75.6167 92.1322 75.7252 95.1381 76.9046L129.376 42.6671V28.7096C129.376 26.842 130.118 25.0509 131.438 23.7296L144.413 10.7546C144.653 10.5123 144.954 10.3401 145.285 10.2568C145.615 10.1735 145.962 10.1823 146.288 10.2821C146.956 10.4771 147.451 11.0321 147.586 11.7146L151.036 28.9721L168.286 32.4221C168.961 32.5571 169.516 33.0521 169.711 33.7196C169.809 34.0439 169.818 34.3887 169.736 34.7176C169.654 35.0464 169.485 35.3469 169.246 35.5871L156.263 48.5621C155.61 49.2158 154.835 49.7345 153.982 50.0884C153.129 50.4423 152.214 50.6245 151.291 50.6246Z" fill="#E30613"/>
<path d="M19.6875 90C19.6875 108.648 27.0954 126.532 40.2816 139.718C53.4677 152.905 71.352 160.313 90 160.313C99.2336 160.313 108.377 158.494 116.907 154.96C125.438 151.427 133.189 146.248 139.718 139.718C146.248 133.189 151.427 125.438 154.96 116.907C158.494 108.377 160.312 99.2336 160.312 90C160.312 83.265 159.367 76.755 157.605 70.5975C157.255 69.1837 157.466 67.6891 158.196 66.4283C158.925 65.1674 160.115 64.2386 161.515 63.8373C162.915 63.436 164.417 63.5935 165.703 64.2766C166.989 64.9598 167.961 66.1153 168.413 67.5C170.467 74.655 171.562 82.2 171.562 90C171.562 135.045 135.045 171.563 90 171.563C44.955 171.563 8.4375 135.045 8.4375 90C8.4375 44.955 44.955 8.43754 90 8.43754C97.6125 8.43004 105.18 9.48754 112.5 11.58C113.214 11.7802 113.881 12.1195 114.463 12.5784C115.045 13.0373 115.531 13.6068 115.892 14.254C116.254 14.9012 116.483 15.6135 116.569 16.3499C116.654 17.0862 116.592 17.8321 116.388 18.5448C116.184 19.2574 115.841 19.9226 115.379 20.5023C114.917 21.0819 114.345 21.5645 113.696 21.9223C113.047 22.2801 112.333 22.5061 111.596 22.5872C110.86 22.6683 110.114 22.603 109.402 22.395C103.093 20.593 96.5621 19.6817 90 19.6875C71.352 19.6875 53.4677 27.0954 40.2816 40.2816C27.0954 53.4677 19.6875 71.352 19.6875 90Z" fill="#E30613"/>
<path d="M53.436 90.0004C53.457 94.9678 54.4901 99.8788 56.4724 104.434C58.4547 108.988 61.3445 113.091 64.9654 116.492C68.5863 119.893 72.8624 122.52 77.5324 124.213C82.2025 125.906 87.1686 126.629 92.1276 126.339C97.0866 126.048 101.934 124.75 106.375 122.524C110.815 120.297 114.756 117.189 117.955 113.389C121.154 109.589 123.545 105.177 124.983 100.422C126.42 95.6669 126.873 90.6688 126.314 85.7329C126.156 84.7332 126.272 83.7096 126.649 82.7704C127.026 81.8312 127.65 81.0115 128.455 80.3981C129.259 79.7846 130.215 79.4003 131.221 79.2858C132.226 79.1714 133.244 79.331 134.166 79.7479C136.049 80.5879 137.316 82.3804 137.481 84.4354C138.646 94.2997 136.708 104.282 131.938 112.994C127.167 121.707 119.801 128.716 110.863 133.049C101.925 137.382 91.8595 138.823 82.065 137.171C72.2704 135.519 63.2338 130.857 56.211 123.833C49.1903 116.816 44.527 107.788 42.868 98.0019C41.209 88.2155 42.6365 78.1553 46.9525 69.2167C51.2685 60.2781 58.2591 52.904 66.9547 48.1173C75.6503 43.3305 85.62 41.3684 95.481 42.5029C96.2265 42.5721 96.9507 42.7893 97.6111 43.142C98.2715 43.4947 98.8548 43.9756 99.3269 44.5567C99.7991 45.1377 100.15 45.8071 100.36 46.5257C100.571 47.2443 100.635 47.9976 100.55 48.7415C100.465 49.4853 100.233 50.2047 99.8662 50.8575C99.4997 51.5104 99.0066 52.0834 98.4157 52.5432C97.8249 53.003 97.1482 53.3401 96.4253 53.535C95.7024 53.7298 94.9479 53.7784 94.206 53.6779C89.0838 53.0857 83.8941 53.5834 78.9778 55.1384C74.0614 56.6934 69.5295 59.2705 65.6794 62.7006C61.8293 66.1307 58.7482 70.3362 56.6381 75.0411C54.5281 79.746 53.4368 84.844 53.436 90.0004Z" fill="#E30613"/>
</svg>
