<svg width="208" height="184" viewBox="0 0 208 184" fill="none" xmlns="http://www.w3.org/2000/svg">
<path d="M192.725 123.395C192.182 121.88 191.545 120.401 190.816 118.967L157.024 42.0878C156.704 41.3473 156.246 40.6745 155.675 40.1053C153.261 37.6903 150.394 35.7746 147.239 34.4676C144.084 33.1606 140.703 32.4879 137.288 32.4879C133.873 32.4879 130.492 33.1606 127.337 34.4676C124.182 35.7746 121.316 37.6903 118.901 40.1053C117.687 41.3213 117.003 42.969 117 44.6878V65.0003H91V44.6878C91.0007 43.8339 90.8331 42.9883 90.5069 42.1992C90.1807 41.4102 89.7022 40.6931 89.0988 40.089C86.6844 37.6741 83.8179 35.7584 80.663 34.4514C77.5082 33.1444 74.1267 32.4717 70.7119 32.4717C67.297 32.4717 63.9156 33.1444 60.7607 34.4514C57.6059 35.7584 54.7394 37.6741 52.325 40.089C51.7537 40.6582 51.2959 41.3311 50.9763 42.0715L17.1844 118.95C16.4555 120.385 15.8177 121.864 15.275 123.378C13.3616 128.732 12.6418 134.44 13.1663 140.101C13.6907 145.762 15.4465 151.24 18.3109 156.152C21.1752 161.063 25.0787 165.289 29.7479 168.533C34.4171 171.776 39.7392 173.96 45.3412 174.931C50.9432 175.902 56.6897 175.636 62.1782 174.152C67.6667 172.668 72.7644 170.002 77.1141 166.341C81.4639 162.68 84.9606 158.112 87.3593 152.957C89.7579 147.803 91.0005 142.186 91 136.5V78.0003H117V136.5C116.997 142.186 118.238 147.804 120.635 152.961C123.032 158.117 126.527 162.687 130.877 166.35C135.226 170.013 140.323 172.68 145.812 174.166C151.301 175.651 157.048 175.918 162.651 174.949C168.254 173.979 173.577 171.796 178.247 168.552C182.917 165.309 186.822 161.083 189.687 156.171C192.552 151.26 194.309 145.781 194.834 140.119C195.358 134.457 194.639 128.749 192.725 123.395ZM62.3269 48.5471C64.494 46.7224 67.1978 45.6556 70.027 45.5089C72.8562 45.3623 75.6558 46.1438 78 47.7346V107.462C72.9251 102.905 66.7418 99.7614 60.0696 98.3468C53.3973 96.9322 46.4705 97.2959 39.9831 99.4015L62.3269 48.5471ZM52 162.5C46.8577 162.5 41.8309 160.975 37.5552 158.118C33.2795 155.262 29.947 151.201 27.9791 146.45C26.0113 141.699 25.4964 136.471 26.4996 131.428C27.5028 126.384 29.9791 121.752 33.6152 118.115C37.2514 114.479 41.8841 112.003 46.9277 111C51.9712 109.997 57.1989 110.512 61.9498 112.479C66.7007 114.447 70.7613 117.78 73.6182 122.055C76.4751 126.331 78 131.358 78 136.5C78 143.396 75.2607 150.009 70.3848 154.885C65.5088 159.761 58.8956 162.5 52 162.5ZM130 47.7265C132.344 46.1357 135.144 45.3541 137.973 45.5008C140.802 45.6475 143.506 46.7143 145.673 48.539L168.017 99.3853C161.529 97.2807 154.602 96.9183 147.929 98.3344C141.257 99.7504 135.074 102.895 130 107.453V47.7265ZM156 162.5C150.858 162.5 145.831 160.975 141.555 158.118C137.279 155.262 133.947 151.201 131.979 146.45C130.011 141.699 129.496 136.471 130.5 131.428C131.503 126.384 133.979 121.752 137.615 118.115C141.251 114.479 145.884 112.003 150.928 111C155.971 109.997 161.199 110.512 165.95 112.479C170.701 114.447 174.761 117.78 177.618 122.055C180.475 126.331 182 131.358 182 136.5C182 143.396 179.261 150.009 174.385 154.885C169.509 159.761 162.896 162.5 156 162.5Z" fill="#E30613"/>
</svg>
