<svg width="75" height="32" viewBox="0 0 75 32" fill="none" xmlns="http://www.w3.org/2000/svg">
<g clip-path="url(#clip0_458_617)">
<path d="M27.3468 2.24L28.5598 0L28.5196 2.56L30.6639 1.24387L29.3753 3.44258L31.877 3.40129L29.6924 4.64516L31.877 5.88903L29.3753 5.84774L30.6639 8.04645L28.5196 6.72516L28.5598 9.29032L27.3468 7.05032L26.1286 9.29032L26.1739 6.72516L24.0296 8.04645L25.3132 5.84774L22.8115 5.88903L25.0011 4.64516L22.8115 3.40129L25.3132 3.44258L24.0296 1.24387L26.1739 2.56L26.1286 0L27.3468 2.24Z" fill="#E30613"/>
<path d="M0 10.2502H2.00839V13.698H2.05369C2.35067 12.9599 2.75336 12.3096 3.27181 11.747C3.79027 11.1844 4.40436 10.7457 5.11409 10.4309C5.82382 10.1161 6.59899 9.95605 7.44463 9.95605C8.78355 9.95605 9.95637 10.3019 10.9581 11.0038C11.9597 11.7006 12.745 12.6812 13.3087 13.9354C13.8725 15.1948 14.1544 16.6709 14.1544 18.369V18.3844C14.1544 20.0825 13.8725 21.5535 13.3087 22.8077C12.745 24.0619 11.9648 25.0373 10.9681 25.7341C9.96644 26.4309 8.80369 26.7819 7.47483 26.7819C6.63423 26.7819 5.85403 26.627 5.13926 26.3122C4.4245 26.0025 3.80537 25.5638 3.28188 25.0115C2.75839 24.4541 2.35067 23.8141 2.05872 23.0864H2.00839V31.9483H0V10.2502ZM9.73993 24.1238C10.4899 23.5819 11.0738 22.8231 11.4916 21.8373C11.9094 20.8567 12.1158 19.7006 12.1158 18.3793V18.3638C12.1158 17.0219 11.9094 15.8606 11.4916 14.8748C11.0738 13.8941 10.495 13.1354 9.73993 12.5986C8.98993 12.0619 8.10402 11.7935 7.09228 11.7935C6.10067 11.7935 5.2198 12.067 4.4547 12.6141C3.6896 13.1612 3.08557 13.9251 2.65268 14.9057C2.21476 15.8915 1.99832 17.0425 1.99832 18.3638V18.3793C1.99832 19.6799 2.21476 20.8257 2.65268 21.8115C3.0906 22.7973 3.6896 23.5664 4.4547 24.1135C5.2198 24.6606 6.10067 24.9341 7.09228 24.9341C8.10402 24.9341 8.9849 24.6657 9.73993 24.1238Z" fill="#1A1B39"/>
<path d="M16.8271 10.2502H18.8355V13.1664H18.8808C19.1678 12.1651 19.6459 11.3806 20.3204 10.8128C20.9949 10.2399 21.8154 9.95605 22.7768 9.95605C23.0386 9.95605 23.2852 9.9767 23.5067 10.018C23.7282 10.0593 23.9043 10.1006 24.0251 10.1419V12.1548C23.8943 12.0928 23.6929 12.036 23.4312 11.9896C23.1694 11.9431 22.8574 11.9173 22.505 11.9173C21.7651 11.9173 21.1208 12.1031 20.5671 12.4696C20.0134 12.8412 19.5855 13.3625 19.2886 14.0386C18.9865 14.7148 18.8406 15.5096 18.8406 16.4232V26.4722H16.8322V10.2502H16.8271Z" fill="#1A1B39"/>
<path d="M28.168 10.2505H26.3408V26.4776H28.168V10.2505Z" fill="#1A1B39"/>
<path d="M34.8474 25.7599C33.6394 25.0528 32.7082 24.0464 32.0538 22.7406C31.3994 21.4348 31.0723 19.8864 31.0723 18.0954V18.0799C31.0723 16.289 31.3995 14.7457 32.0588 13.4503C32.7182 12.1548 33.6494 11.1587 34.8525 10.4567C36.0555 9.75478 37.4649 9.40381 39.0907 9.40381C40.5706 9.40381 41.8541 9.68768 42.9414 10.2554C44.0236 10.8232 44.8743 11.587 45.4884 12.5574C46.1025 13.5225 46.4397 14.6116 46.5001 15.8193V15.9277H42.3625L42.3474 15.7883C42.2166 14.9986 41.8793 14.3328 41.3407 13.7909C40.8021 13.249 40.0723 12.9806 39.1511 12.9806C38.4313 12.9806 37.8021 13.187 37.2736 13.5999C36.7401 14.0128 36.3323 14.6012 36.0404 15.3651C35.7484 16.129 35.6075 17.0425 35.6075 18.1057V18.1212C35.6075 19.2154 35.7535 20.1393 36.0404 20.9083C36.3323 21.6722 36.7401 22.2554 37.2736 22.6528C37.8072 23.0554 38.4364 23.2567 39.1662 23.2567C40.0572 23.2567 40.777 22.9986 41.3206 22.4825C41.8642 21.9664 42.2065 21.2903 42.3474 20.449L42.3776 20.3096H46.5152V20.4025C46.4448 21.6206 46.0974 22.7148 45.4783 23.6799C44.8592 24.6451 44.0085 25.4141 42.9313 25.9819C41.8491 26.5496 40.5857 26.8335 39.136 26.8335C37.485 26.8232 36.0555 26.467 34.8474 25.7599Z" fill="#E30613"/>
<path d="M51.161 26.0646C50.3204 25.5588 49.6812 24.8414 49.2432 23.902C48.8053 22.9679 48.5889 21.8479 48.5889 20.5472V9.74979H53.0335V19.5975C53.0335 20.6866 53.2852 21.5382 53.7885 22.142C54.2919 22.7459 55.0368 23.0453 56.0335 23.0453C56.5318 23.0453 56.9798 22.9575 57.3825 22.782C57.7852 22.6066 58.1275 22.3537 58.4093 22.0233C58.6962 21.6982 58.9127 21.3059 59.0637 20.8517C59.2147 20.3975 59.2902 19.9021 59.2902 19.3601V9.74463H63.7348V26.4724H59.2902V23.7111H59.1845C58.9127 24.3459 58.5452 24.8982 58.0822 25.3627C57.6191 25.8324 57.0654 26.1885 56.4211 26.4414C55.7768 26.6891 55.0369 26.813 54.2063 26.813C53.0184 26.8233 52.0016 26.5704 51.161 26.0646Z" fill="#E30613"/>
<path d="M75.2518 9.74985H72.2669V5.66211H67.777V9.74985H65.5068V13.1821H67.777V21.7963C67.777 23.5873 68.2149 24.8724 69.0857 25.6518C69.9565 26.4311 71.2954 26.8234 73.1025 26.8234C73.5706 26.8234 74.3407 26.7718 74.3407 26.7718L75.2468 23.3137C75.1159 23.3344 74.975 23.3499 74.8189 23.3653C74.6679 23.3808 74.4917 23.3911 74.2854 23.3911C73.6159 23.3911 73.1125 23.2363 72.7703 22.9318C72.428 22.6221 72.2619 22.0802 72.2619 21.3008V13.1821H74.3458L75.2518 9.74985Z" fill="#E30613"/>
</g>
<defs>
<clipPath id="clip0_458_617">
<rect width="75" height="32" fill="white"/>
</clipPath>
</defs>
</svg>
