<svg width="105" height="70" viewBox="0 0 105 70" fill="none" xmlns="http://www.w3.org/2000/svg">
<path d="M40.4998 17.7559L42.0301 15L41.9793 18.1497L44.6845 16.5304L43.0588 19.2355L46.2149 19.1847L43.4589 20.7151L46.2149 22.2455L43.0588 22.1947L44.6845 24.8998L41.9793 23.2742L42.0301 26.4302L40.4998 23.6742L38.963 26.4302L39.0202 23.2742L36.315 24.8998L37.9343 22.1947L34.7783 22.2455L37.5406 20.7151L34.7783 19.1847L37.9343 19.2355L36.315 16.5304L39.0202 18.1497L38.963 15L40.4998 17.7559Z" fill="#E30613"/>
<path d="M6 27.6115H8.53369V31.8533H8.59084C8.96549 30.9453 9.47351 30.1452 10.1276 29.453C10.7816 28.7608 11.5563 28.2211 12.4517 27.8337C13.3471 27.4464 14.325 27.2495 15.3918 27.2495C17.0809 27.2495 18.5605 27.675 19.8242 28.5386C21.0878 29.3958 22.0785 30.6024 22.7897 32.1454C23.5009 33.6949 23.8565 35.511 23.8565 37.6002V37.6192C23.8565 39.7084 23.5009 41.5182 22.7897 43.0613C22.0785 44.6043 21.0942 45.8045 19.8369 46.6618C18.5732 47.519 17.1063 47.9508 15.4299 47.9508C14.3694 47.9508 13.3852 47.7603 12.4835 47.373C11.5817 46.992 10.8007 46.4522 10.1403 45.7728C9.47985 45.0869 8.9655 44.2995 8.59719 43.4042H8.53369V54.3073H6V27.6115ZM18.2874 44.6805C19.2336 44.0138 19.9702 43.0803 20.4973 41.8674C21.0243 40.6609 21.2847 39.2385 21.2847 37.6129V37.5938C21.2847 35.9428 21.0243 34.514 20.4973 33.3012C19.9702 32.0946 19.24 31.1612 18.2874 30.5008C17.3413 29.8404 16.2237 29.5101 14.9473 29.5101C13.6963 29.5101 12.5851 29.8467 11.6198 30.5198C10.6546 31.1929 9.89261 32.1327 9.3465 33.3393C8.79404 34.5521 8.52099 35.9682 8.52099 37.5938V37.6129C8.52099 39.2131 8.79404 40.6228 9.3465 41.8357C9.89896 43.0486 10.6546 43.9947 11.6198 44.6678C12.5851 45.3409 13.6963 45.6775 14.9473 45.6775C16.2237 45.6775 17.3349 45.3473 18.2874 44.6805Z" fill="white"/>
<path d="M27.2285 27.6115H29.7622V31.1993H29.8194C30.1813 29.9674 30.7846 29.0021 31.6355 28.3036C32.4864 27.5988 33.5215 27.2495 34.7343 27.2495C35.0645 27.2495 35.3757 27.2749 35.6551 27.3257C35.9345 27.3765 36.1568 27.4273 36.3092 27.4781V29.9547C36.1441 29.8785 35.8901 29.8086 35.5599 29.7514C35.2296 29.6943 34.8359 29.6625 34.3914 29.6625C33.458 29.6625 32.6452 29.8912 31.9466 30.342C31.2481 30.7992 30.7084 31.4406 30.3337 32.2724C29.9527 33.1043 29.7686 34.0822 29.7686 35.2062V47.5698H27.2349V27.6115H27.2285Z" fill="white"/>
<path d="M41.3051 28.0413H39V48.006H41.3051V28.0413Z" fill="white"/>
<path d="M49.7313 47.1235C48.2073 46.2535 47.0325 45.0152 46.207 43.4087C45.3815 41.8021 44.9688 39.8971 44.9688 37.6936V37.6745C44.9688 35.471 45.3815 33.5724 46.2134 31.9785C47.0452 30.3846 48.22 29.159 49.7377 28.2954C51.2553 27.4318 53.0334 27 55.0845 27C56.9514 27 58.5707 27.3493 59.9423 28.0478C61.3076 28.7463 62.3807 29.6861 63.1554 30.8799C63.9302 32.0674 64.3556 33.4073 64.4318 34.8932V35.0265H59.212L59.193 34.8551C59.0279 33.8835 58.6024 33.0643 57.923 32.3976C57.2435 31.7308 56.3227 31.4006 55.1607 31.4006C54.2526 31.4006 53.4588 31.6546 52.7921 32.1626C52.119 32.6706 51.6046 33.3946 51.2363 34.3344C50.868 35.2742 50.6902 36.3982 50.6902 37.7063V37.7253C50.6902 39.0715 50.8743 40.2082 51.2363 41.1544C51.6046 42.0942 52.119 42.8118 52.7921 43.3007C53.4652 43.796 54.259 44.0437 55.1797 44.0437C56.3037 44.0437 57.2117 43.7262 57.8976 43.0912C58.5834 42.4561 59.0152 41.6243 59.193 40.5892L59.2311 40.4178H64.4509V40.5321C64.362 42.0307 63.9238 43.3769 63.1427 44.5644C62.3617 45.7519 61.2885 46.698 59.9296 47.3965C58.5643 48.095 56.9704 48.4443 55.1416 48.4443C53.0588 48.4316 51.2554 47.9934 49.7313 47.1235Z" fill="#E30613"/>
<path d="M70.5418 47.068C69.4813 46.4457 68.6748 45.5631 68.1224 44.4073C67.5699 43.258 67.2969 41.88 67.2969 40.2798V26.9954H72.904V39.1114C72.904 40.4512 73.2215 41.499 73.8565 42.242C74.4915 42.9849 75.4314 43.3532 76.6887 43.3532C77.3173 43.3532 77.8825 43.2453 78.3905 43.0294C78.8985 42.8135 79.3303 42.5023 79.6859 42.0959C80.0479 41.6958 80.3209 41.2132 80.5114 40.6544C80.7019 40.0956 80.7972 39.486 80.7972 38.8193V26.989H86.4043V47.5697H80.7972V44.1724H80.6638C80.3209 44.9535 79.8574 45.6329 79.2732 46.2044C78.689 46.7823 77.9904 47.2204 77.1776 47.5316C76.3648 47.8364 75.4314 47.9888 74.3836 47.9888C72.885 48.0015 71.6022 47.6903 70.5418 47.068Z" fill="#E30613"/>
<path d="M100.934 26.9953H97.1688V21.9661H91.5045V26.9953H88.6406V31.2182H91.5045V41.8165C91.5045 44.02 92.057 45.6011 93.1555 46.56C94.2541 47.5189 95.9432 48.0015 98.2229 48.0015C98.8135 48.0015 99.7851 47.938 99.7851 47.938L100.928 43.6834C100.763 43.7088 100.585 43.7279 100.388 43.7469C100.198 43.766 99.9756 43.7787 99.7152 43.7787C98.8706 43.7787 98.2356 43.5882 97.8038 43.2135C97.372 42.8325 97.1625 42.1657 97.1625 41.2069V31.2182H99.7914L100.934 26.9953Z" fill="#E30613"/>
</svg>
