<svg width="164" height="164" viewBox="0 0 164 164" fill="none" xmlns="http://www.w3.org/2000/svg">
<g id="icon-park-outline:check-one">
<g id="Group">
<path id="Vector" d="M82 150.334C90.9754 150.345 99.8645 148.583 108.157 145.148C116.449 141.713 123.98 136.674 130.319 130.319C136.673 123.981 141.713 116.449 145.148 108.157C148.583 99.8649 150.345 90.9757 150.333 82.0004C150.345 73.0251 148.582 64.1359 145.148 55.8438C141.713 47.5518 136.673 40.0202 130.319 33.6819C123.98 27.327 116.449 22.2873 108.157 18.8525C99.8645 15.4177 90.9754 13.6554 82 13.667C73.0247 13.6556 64.1356 15.4179 55.8435 18.8527C47.5514 22.2875 40.0198 27.3271 33.6815 33.6819C27.3268 40.0202 22.2872 47.5518 18.8524 55.8438C15.4176 64.1359 13.6552 73.0251 13.6667 82.0004C13.6551 90.9757 15.4173 99.8649 18.8521 108.157C22.2869 116.449 27.3266 123.981 33.6815 130.319C40.0198 136.674 47.5514 141.713 55.8435 145.148C64.1356 148.583 73.0247 150.345 82 150.334Z" stroke="#171E53" stroke-width="6" stroke-linejoin="round"/>
<path id="Vector_2" d="M54.6667 82L75.1667 102.5L116.167 61.5" stroke="#171E53" stroke-width="6" stroke-linecap="round" stroke-linejoin="round"/>
</g>
</g>
</svg>
