<svg width="115" height="115" viewBox="0 0 115 115" fill="none" xmlns="http://www.w3.org/2000/svg">
<path d="M67.0833 14.375V33.5417C67.0833 34.8125 67.5882 36.0313 68.4868 36.9299C69.3854 37.8285 70.6042 38.3333 71.875 38.3333H91.0417" stroke="#171E53" stroke-width="2" stroke-linecap="round" stroke-linejoin="round"/>
<path d="M81.4583 100.625H33.5417C31 100.625 28.5624 99.6153 26.7652 97.8181C24.968 96.0209 23.9583 93.5833 23.9583 91.0417V23.9583C23.9583 21.4167 24.968 18.9791 26.7652 17.1819C28.5624 15.3847 31 14.375 33.5417 14.375H67.0833L91.0417 38.3333V91.0417C91.0417 93.5833 90.032 96.0209 88.2348 97.8181C86.4375 99.6153 84 100.625 81.4583 100.625Z" stroke="#171E53" stroke-width="2" stroke-linecap="round" stroke-linejoin="round"/>
<path d="M39.9883 93.1992C39.5039 93.1992 39.0938 93.0312 38.7578 92.6953C38.4297 92.3594 38.2656 91.9531 38.2656 91.4766C38.2656 90.9922 38.4297 90.5859 38.7578 90.2578C39.0938 89.9219 39.5039 89.7539 39.9883 89.7539C40.4727 89.7539 40.8789 89.9219 41.207 90.2578C41.543 90.5859 41.7109 90.9922 41.7109 91.4766C41.7109 91.9531 41.543 92.3594 41.207 92.6953C40.8789 93.0312 40.4727 93.1992 39.9883 93.1992ZM48.332 93.2461C47.2852 93.2461 46.375 92.9844 45.6016 92.4609C44.8281 91.9297 44.2305 91.1797 43.8086 90.2109C43.3867 89.2422 43.1758 88.0898 43.1758 86.7539V86.7422C43.1758 85.4062 43.3867 84.2539 43.8086 83.2852C44.2305 82.3164 44.8242 81.5703 45.5898 81.0469C46.3633 80.5234 47.2734 80.2617 48.3203 80.2617C48.9141 80.2617 49.4609 80.3594 49.9609 80.5547C50.4609 80.7422 50.9023 81.0117 51.2852 81.3633C51.668 81.7148 51.9766 82.1328 52.2109 82.6172H52.293V75.9375H55.2109V93H52.293V90.9141H52.2109C51.9766 91.3984 51.668 91.8125 51.2852 92.1562C50.9102 92.5 50.4727 92.7695 49.9727 92.9648C49.4805 93.1523 48.9336 93.2461 48.332 93.2461ZM49.2109 90.7852C49.8281 90.7852 50.3672 90.6211 50.8281 90.293C51.2969 89.9648 51.6602 89.5 51.918 88.8984C52.1758 88.2891 52.3047 87.5742 52.3047 86.7539V86.7422C52.3047 85.9219 52.1719 85.2109 51.9062 84.6094C51.6484 84.0078 51.2891 83.543 50.8281 83.2148C50.3672 82.8867 49.8281 82.7227 49.2109 82.7227C48.5859 82.7227 48.043 82.8867 47.582 83.2148C47.1211 83.5352 46.7656 83.9961 46.5156 84.5977C46.2656 85.1914 46.1406 85.9062 46.1406 86.7422V86.7539C46.1406 87.582 46.2656 88.3008 46.5156 88.9102C46.7656 89.5117 47.1211 89.9766 47.582 90.3047C48.043 90.625 48.5859 90.7852 49.2109 90.7852ZM56.9805 93L61.0234 86.7773L57.0156 80.5078H60.3086L62.8164 84.8906H62.8984L65.3945 80.5078H68.582L64.5625 86.6836L68.5586 93H65.3594L62.7695 88.5469H62.6758L60.0977 93H56.9805ZM71.1719 93V82.7578H69.4023V80.5078H71.1719V79.3008C71.1719 78.4883 71.3086 77.8164 71.582 77.2852C71.8555 76.7539 72.2773 76.3594 72.8477 76.1016C73.4258 75.8359 74.168 75.7031 75.0742 75.7031C75.3633 75.7031 75.6484 75.7148 75.9297 75.7383C76.2109 75.7617 76.4453 75.793 76.6328 75.832V77.8711C76.5156 77.8477 76.3789 77.832 76.2227 77.8242C76.0664 77.8164 75.9023 77.8125 75.7305 77.8125C75.1445 77.8125 74.7148 77.9492 74.4414 78.2227C74.168 78.4883 74.0312 78.8828 74.0312 79.4062V80.5078H76.5859V82.7578H74.0898V93H71.1719Z" fill="#171E53"/>
</svg>
