<svg width="50" height="10" viewBox="0 0 50 10" fill="none" xmlns="http://www.w3.org/2000/svg">
<g id="Vector">
<path d="M10 5C10 7.76142 7.76142 10 5 10C2.23858 10 0 7.76142 0 5C0 2.23858 2.23858 0 5 0C7.76142 0 10 2.23858 10 5Z" fill="#E30613"/>
<path d="M30 5C30 7.76142 27.7614 10 25 10C22.2386 10 20 7.76142 20 5C20 2.23858 22.2386 0 25 0C27.7614 0 30 2.23858 30 5Z" fill="#171E53"/>
<path d="M50 5C50 7.76142 47.7614 10 45 10C42.2386 10 40 7.76142 40 5C40 2.23858 42.2386 0 45 0C47.7614 0 50 2.23858 50 5Z" fill="#171E53"/>
</g>
</svg>
