<svg width="35" height="36" viewBox="0 0 35 36" fill="none" xmlns="http://www.w3.org/2000/svg">
<g clip-path="url(#clip0_260_492)">
<path d="M17.4997 2.43262V34.5407M25.5205 5.35154H14.583C12.8425 5.35154 11.1733 6.04347 9.94262 7.27513C8.71191 8.50679 8.02051 10.1773 8.02051 11.9191C8.02051 13.6609 8.71191 15.3314 9.94262 16.5631C11.1733 17.7947 12.8425 18.4867 14.583 18.4867H20.4163C21.2781 18.4867 22.1315 18.6565 22.9277 18.9866C23.7239 19.3166 24.4473 19.8004 25.0567 20.4103C25.6661 21.0201 26.1495 21.7441 26.4793 22.5409C26.8091 23.3378 26.9788 24.1918 26.9788 25.0542C26.9788 25.9167 26.8091 26.7707 26.4793 27.5675C26.1495 28.3644 25.6661 29.0884 25.0567 29.6982C24.4473 30.3081 23.7239 30.7918 22.9277 31.1219C22.1315 31.4519 21.2781 31.6218 20.4163 31.6218H9.47884" stroke="#E30613" stroke-width="4" stroke-linecap="round" stroke-linejoin="round"/>
</g>
<defs>
<clipPath id="clip0_260_492">
<rect width="35" height="36" fill="white"/>
</clipPath>
</defs>
</svg>
