<svg width="72" height="91" viewBox="0 0 72 91" fill="none" xmlns="http://www.w3.org/2000/svg">
<path d="M45.125 2.375V21.5417C45.125 22.8125 45.6298 24.0313 46.5284 24.9299C47.4271 25.8285 48.6458 26.3333 49.9167 26.3333H69.0833" stroke="#E30613" stroke-width="4" stroke-linecap="round" stroke-linejoin="round"/>
<path d="M59.5 88.625H11.5833C9.04168 88.625 6.60412 87.6153 4.80689 85.8181C3.00967 84.0209 2 81.5833 2 79.0417V11.9583C2 9.41668 3.00967 6.97912 4.80689 5.18189C6.60412 3.38467 9.04168 2.375 11.5833 2.375H45.125L69.0833 26.3333V79.0417C69.0833 81.5833 68.0737 84.0209 66.2764 85.8181C64.4792 87.6153 62.0417 88.625 59.5 88.625Z" stroke="#E30613" stroke-width="4" stroke-linecap="round" stroke-linejoin="round"/>
<g clip-path="url(#clip0_260_487)">
<path d="M35.4997 40.4326V72.5407M43.5205 43.3515H32.583C30.8425 43.3515 29.1733 44.0435 27.9426 45.2751C26.7119 46.5068 26.0205 48.1773 26.0205 49.9191C26.0205 51.6609 26.7119 53.3314 27.9426 54.5631C29.1733 55.7947 30.8425 56.4867 32.583 56.4867H38.4163C39.2781 56.4867 40.1315 56.6565 40.9277 56.9866C41.7239 57.3166 42.4473 57.8004 43.0567 58.4103C43.6661 59.0201 44.1495 59.7441 44.4793 60.5409C44.8091 61.3378 44.9788 62.1918 44.9788 63.0542C44.9788 63.9167 44.8091 64.7707 44.4793 65.5675C44.1495 66.3644 43.6661 67.0884 43.0567 67.6982C42.4473 68.3081 41.7239 68.7918 40.9277 69.1219C40.1315 69.4519 39.2781 69.6218 38.4163 69.6218H27.4788" stroke="#E30613" stroke-width="4" stroke-linecap="round" stroke-linejoin="round"/>
</g>
<defs>
<clipPath id="clip0_260_487">
<rect width="35" height="36" fill="white" transform="translate(18 38)"/>
</clipPath>
</defs>
</svg>
