<svg width="20" height="21" viewBox="0 0 20 21" fill="none" xmlns="http://www.w3.org/2000/svg">
<g id="heroicons:envelope">
<path id="Vector" d="M18.125 6.41113V15.1611C18.125 15.6584 17.9275 16.1353 17.5758 16.487C17.2242 16.8386 16.7473 17.0361 16.25 17.0361H3.75C3.25272 17.0361 2.77581 16.8386 2.42417 16.487C2.07254 16.1353 1.875 15.6584 1.875 15.1611V6.41113M18.125 6.41113C18.125 5.91385 17.9275 5.43694 17.5758 5.08531C17.2242 4.73368 16.7473 4.53613 16.25 4.53613H3.75C3.25272 4.53613 2.77581 4.73368 2.42417 5.08531C2.07254 5.43694 1.875 5.91385 1.875 6.41113M18.125 6.41113V6.61363C18.125 6.93375 18.0431 7.24855 17.887 7.52805C17.7309 7.80754 17.5059 8.04241 17.2333 8.2103L10.9833 12.0561C10.6877 12.2382 10.3472 12.3347 10 12.3347C9.65275 12.3347 9.31233 12.2382 9.01667 12.0561L2.76667 8.21113C2.4941 8.04325 2.26906 7.80837 2.11297 7.52888C1.95689 7.24939 1.87496 6.93459 1.875 6.61447V6.41113" stroke="white" stroke-linecap="round" stroke-linejoin="round"/>
</g>
</svg>
