<svg width="20" height="21" viewBox="0 0 20 21" fill="none" xmlns="http://www.w3.org/2000/svg">
<g id="ion:location-outline">
<path id="Vector" d="M10 2.66113C6.89453 2.66113 4.375 5.05918 4.375 8.0127C4.375 11.4111 8.125 16.7967 9.50195 18.6568C9.55911 18.7354 9.63402 18.7993 9.72058 18.8433C9.80713 18.8874 9.90288 18.9103 10 18.9103C10.0971 18.9103 10.1929 18.8874 10.2794 18.8433C10.366 18.7993 10.4409 18.7354 10.498 18.6568C11.875 16.7975 15.625 11.4139 15.625 8.0127C15.625 5.05918 13.1055 2.66113 10 2.66113Z" stroke="white" stroke-linecap="round" stroke-linejoin="round"/>
<path id="Vector_2" d="M10 10.1611C11.0355 10.1611 11.875 9.32167 11.875 8.28613C11.875 7.2506 11.0355 6.41113 10 6.41113C8.96447 6.41113 8.125 7.2506 8.125 8.28613C8.125 9.32167 8.96447 10.1611 10 10.1611Z" stroke="white" stroke-linecap="round" stroke-linejoin="round"/>
</g>
</svg>
