<svg width="20" height="20" viewBox="0 0 20 20" fill="none" xmlns="http://www.w3.org/2000/svg">
<g id="icon/linkedin">
<path id="Vector" d="M3.33337 7.2219H6.11115V16.6663H3.33337V7.2219ZM4.71393 6.11079H4.69837C3.86948 6.11079 3.33337 5.49301 3.33337 4.72134C3.33337 3.93301 3.88615 3.33301 4.73004 3.33301C5.57504 3.33301 6.0956 3.93301 6.11115 4.72134C6.11115 5.49245 5.57504 6.11079 4.71393 6.11079ZM16.6667 16.6663H13.8889V11.6113C13.8889 10.3902 13.2084 9.5569 12.1156 9.5569C11.2817 9.5569 10.8306 10.1191 10.6117 10.6625C10.5317 10.8569 10.5556 11.3947 10.5556 11.6663V16.6663H7.77782V7.2219H10.5556V8.67523C10.9562 8.05523 11.5834 7.2219 13.1878 7.2219C15.1756 7.2219 16.6662 8.4719 16.6662 11.263L16.6667 16.6663Z" fill="white"/>
</g>
</svg>
