<svg width="14" height="14" viewBox="0 0 14 14" fill="none" xmlns="http://www.w3.org/2000/svg">
<path d="M0.333984 4.2219H3.11176V13.6663H0.333984V4.2219ZM1.71454 3.11079H1.69898C0.870095 3.11079 0.333984 2.49301 0.333984 1.72134C0.333984 0.933008 0.886762 0.333008 1.73065 0.333008C2.57565 0.333008 3.09621 0.933008 3.11176 1.72134C3.11176 2.49245 2.57565 3.11079 1.71454 3.11079ZM13.6673 13.6663H10.8895V8.61134C10.8895 7.39023 10.209 6.5569 9.11621 6.5569C8.28232 6.5569 7.83121 7.11912 7.61232 7.66245C7.53232 7.8569 7.55621 8.39467 7.55621 8.66634V13.6663H4.77843V4.2219H7.55621V5.67523C7.95676 5.05523 8.58398 4.2219 10.1884 4.2219C12.1762 4.2219 13.6668 5.4719 13.6668 8.26301L13.6673 13.6663Z" fill="#171E53"/>
</svg>
