<svg width="20" height="20" viewBox="0 0 20 20" fill="none" xmlns="http://www.w3.org/2000/svg">
<path d="M7.53366 17.9503C8.33366 18.192 9.14199 18.3337 10.0003 18.3337C12.2105 18.3337 14.3301 17.4557 15.8929 15.8929C17.4557 14.3301 18.3337 12.2105 18.3337 10.0003C18.3337 8.90598 18.1181 7.82234 17.6993 6.8113C17.2805 5.80025 16.6667 4.88159 15.8929 4.10777C15.1191 3.33395 14.2004 2.72012 13.1894 2.30133C12.1783 1.88254 11.0947 1.66699 10.0003 1.66699C8.90598 1.66699 7.82234 1.88254 6.8113 2.30133C5.80025 2.72012 4.88159 3.33395 4.10777 4.10777C2.54497 5.67057 1.66699 7.79019 1.66699 10.0003C1.66699 13.542 3.89199 16.5837 7.03366 17.7837C6.95866 17.1337 6.88366 16.0587 7.03366 15.317L7.99199 11.2003C7.99199 11.2003 7.75033 10.717 7.75033 9.95033C7.75033 8.80032 8.46699 7.94199 9.28366 7.94199C10.0003 7.94199 10.3337 8.46699 10.3337 9.14199C10.3337 9.85866 9.85866 10.8837 9.61699 11.867C9.47533 12.6837 10.0503 13.4003 10.8837 13.4003C12.367 13.4003 13.517 11.817 13.517 9.58366C13.517 7.58366 12.0837 6.21699 10.0253 6.21699C7.67533 6.21699 6.29199 7.96699 6.29199 9.80866C6.29199 10.5253 6.52533 11.2503 6.90866 11.7253C6.98366 11.7753 6.98366 11.842 6.95866 11.967L6.71699 12.8753C6.71699 13.017 6.62533 13.067 6.48366 12.967C5.41699 12.5003 4.80033 10.9837 4.80033 9.75866C4.80033 7.12533 6.66699 4.73366 10.267 4.73366C13.1337 4.73366 15.367 6.79199 15.367 9.52533C15.367 12.392 13.592 14.692 11.0503 14.692C10.242 14.692 9.45033 14.2587 9.16699 13.7503L8.60866 15.7253C8.41699 16.442 7.89199 17.4003 7.53366 17.9753V17.9503Z" fill="white"/>
</svg>
