<svg width="115" height="115" viewBox="0 0 115 115" fill="none" xmlns="http://www.w3.org/2000/svg">
<path d="M67.083 14.375V33.5417C67.083 34.8125 67.5878 36.0313 68.4865 36.9299C69.3851 37.8285 70.6038 38.3333 71.8747 38.3333H91.0413" stroke="#E30613" stroke-width="4" stroke-linecap="round" stroke-linejoin="round"/>
<path d="M57.4997 52.7083V81.4583M81.458 100.625H33.5413C30.9997 100.625 28.5621 99.6153 26.7649 97.8181C24.9677 96.0209 23.958 93.5833 23.958 91.0417V23.9583C23.958 21.4167 24.9677 18.9791 26.7649 17.1819C28.5621 15.3847 30.9997 14.375 33.5413 14.375H67.083L91.0413 38.3333V91.0417C91.0413 93.5833 90.0317 96.0209 88.2345 97.8181C86.4372 99.6153 83.9997 100.625 81.458 100.625Z" stroke="#E30613" stroke-width="4" stroke-linecap="round" stroke-linejoin="round"/>
<path d="M45.5205 64.6877L57.4997 52.7085L69.4788 64.6877" stroke="#E30613" stroke-width="4" stroke-linecap="round" stroke-linejoin="round"/>
</svg>
