<svg width="397" height="529" viewBox="0 0 397 529" fill="none" xmlns="http://www.w3.org/2000/svg">
<path d="M521.478 251.114C521.586 247.216 521.586 243.318 521.478 239.419L561.867 188.96C563.984 186.311 565.45 183.201 566.146 179.882C566.842 176.562 566.748 173.126 565.873 169.849C559.24 144.964 549.336 121.07 536.42 98.7892C534.728 95.8742 532.378 93.3946 529.558 91.5477C526.739 89.7007 523.527 88.5375 520.178 88.1506L455.967 81.004C453.297 78.1887 450.59 75.4817 447.846 72.8829L440.267 8.50972C439.877 5.15875 438.71 1.9452 436.858 -0.874733C435.006 -3.69466 432.521 -6.04297 429.601 -7.73246C407.322 -20.6383 383.426 -30.5244 358.541 -37.1308C355.265 -38.0063 351.828 -38.0998 348.508 -37.4039C345.189 -36.708 342.079 -35.2422 339.43 -33.1244L289.106 7.04792H277.412L226.953 -33.2598C224.303 -35.3775 221.194 -36.8434 217.874 -37.5393C214.554 -38.2352 211.118 -38.1416 207.841 -37.2662C182.957 -30.6332 159.062 -20.7294 136.781 -7.81368C133.866 -6.12108 131.387 -3.77139 129.54 -0.951653C127.693 1.86809 126.53 5.08002 126.143 8.42851L118.996 72.7476C116.181 75.4366 113.474 78.1436 110.875 80.8687L46.5019 88.2589C43.1509 88.6487 39.9374 89.8161 37.1175 91.6678C34.2975 93.5196 31.9492 96.0045 30.2597 98.9246C17.3566 121.208 7.46204 145.102 0.834295 169.984C-0.0374527 173.263 -0.126614 176.701 0.573995 180.021C1.2746 183.34 2.74538 186.449 4.86777 189.096L45.0401 239.419V251.114L4.73242 301.573C2.61466 304.222 1.1488 307.332 0.452906 310.652C-0.242983 313.971 -0.149439 317.408 0.726011 320.685C7.35897 345.569 17.2628 369.464 30.1785 391.744C31.8711 394.659 34.2208 397.139 37.0405 398.986C39.8603 400.833 43.0722 401.996 46.4207 402.383L110.631 409.529C113.32 412.345 116.028 415.052 118.753 417.65L126.251 482.024C126.641 485.375 127.808 488.588 129.66 491.408C131.512 494.228 133.997 496.576 136.917 498.266C159.2 511.169 183.094 521.064 207.976 527.691C211.255 528.563 214.693 528.652 218.013 527.952C221.332 527.251 224.441 525.78 227.088 523.658L277.412 483.485C281.31 483.594 285.208 483.594 289.106 483.485L339.565 523.874C342.214 525.992 345.324 527.458 348.644 528.154C351.963 528.85 355.4 528.756 358.677 527.881C383.565 521.26 407.462 511.355 429.736 498.428C432.651 496.736 435.131 494.386 436.978 491.566C438.825 488.746 439.988 485.535 440.375 482.186L447.522 417.975C450.337 415.304 453.044 412.597 455.643 409.854L520.016 402.275C523.367 401.885 526.58 400.717 529.4 398.866C532.22 397.014 534.569 394.529 536.258 391.609C549.161 369.325 559.056 345.431 565.683 320.549C566.555 317.27 566.644 313.833 565.944 310.513C565.243 307.193 563.772 304.085 561.65 301.438L521.478 251.114ZM283.259 353.548C261.843 353.548 240.908 347.197 223.101 335.299C205.294 323.401 191.416 306.49 183.22 286.704C175.024 266.918 172.88 245.147 177.058 224.142C181.236 203.138 191.549 183.844 206.692 168.7C221.836 153.557 241.13 143.244 262.134 139.066C283.139 134.888 304.911 137.032 324.696 145.228C344.482 153.423 361.393 167.302 373.291 185.109C385.19 202.916 391.54 223.851 391.54 245.267C391.54 273.985 380.132 301.526 359.825 321.833C339.519 342.14 311.977 353.548 283.259 353.548Z" fill="#E6E6E6"/>
</svg>
