<svg width="200" height="370" viewBox="0 0 200 370" fill="none" xmlns="http://www.w3.org/2000/svg">
<path d="M170.132 188.58C170.203 186.038 170.203 183.495 170.132 180.953L196.475 148.042C197.856 146.314 198.812 144.285 199.266 142.12C199.72 139.955 199.659 137.714 199.088 135.576C194.762 119.346 188.302 103.761 179.878 89.2287C178.774 87.3274 177.242 85.7101 175.402 84.5055C173.563 83.3008 171.468 82.5422 169.284 82.2898L127.404 77.6285C125.662 75.7923 123.896 74.0267 122.107 72.3317L117.163 30.3451C116.909 28.1595 116.147 26.0635 114.94 24.2242C113.732 22.385 112.111 20.8533 110.207 19.7514C95.6756 11.3337 80.0898 4.88565 63.8589 0.576676C61.7217 0.00567523 59.4802 -0.0553413 57.315 0.398543C55.1499 0.852427 53.1216 1.80852 51.3936 3.1898L18.5706 29.3917H10.9431L-21.9681 3.10152C-23.6961 1.72024 -25.7244 0.764147 -27.8895 0.310263C-30.0547 -0.143621 -32.2962 -0.082608 -34.4334 0.488392C-50.6639 4.81465 -66.249 11.2743 -80.7811 19.6984C-82.6823 20.8024 -84.2996 22.3349 -85.5043 24.1741C-86.7089 26.0132 -87.4676 28.1081 -87.72 30.2921L-92.3812 72.2434C-94.2175 73.9972 -95.9831 75.7629 -97.6781 77.5403L-139.665 82.3604C-141.85 82.6147 -143.946 83.3761 -145.786 84.5839C-147.625 85.7916 -149.156 87.4124 -150.258 89.317C-158.674 103.851 -165.128 119.436 -169.451 135.665C-170.019 137.803 -170.077 140.046 -169.621 142.211C-169.164 144.376 -168.204 146.403 -166.82 148.13L-140.618 180.953V188.58L-166.908 221.492C-168.29 223.22 -169.246 225.248 -169.7 227.413C-170.153 229.578 -170.092 231.82 -169.521 233.957C-165.195 250.187 -158.735 265.773 -150.311 280.305C-149.207 282.206 -147.675 283.823 -145.836 285.028C-143.997 286.232 -141.902 286.991 -139.718 287.244L-97.837 291.905C-96.0831 293.741 -94.3175 295.507 -92.5401 297.202L-87.6493 339.188C-87.3951 341.374 -86.6337 343.47 -85.4259 345.309C-84.2181 347.148 -82.5973 348.68 -80.6928 349.782C-66.1588 358.198 -50.574 364.651 -34.3451 368.974C-32.2065 369.543 -29.9642 369.601 -27.799 369.144C-25.6338 368.687 -23.6063 367.728 -21.8798 366.344L10.9431 340.142C13.4856 340.212 16.0282 340.212 18.5706 340.142L51.4819 366.485C53.2099 367.866 55.2382 368.822 57.4033 369.276C59.5685 369.73 61.81 369.669 63.9472 369.098C80.1803 364.779 95.7664 358.319 110.295 349.888C112.196 348.784 113.813 347.251 115.018 345.412C116.223 343.573 116.981 341.478 117.234 339.294L121.895 297.414C123.731 295.671 125.497 293.906 127.192 292.117L169.178 287.173C171.364 286.919 173.46 286.157 175.299 284.949C177.139 283.742 178.67 282.121 179.772 280.216C188.188 265.682 194.642 250.098 198.965 233.869C199.533 231.73 199.591 229.488 199.134 227.323C198.677 225.157 197.718 223.13 196.334 221.403L170.132 188.58ZM14.7569 255.392C0.788589 255.392 -12.866 251.25 -24.4802 243.489C-36.0945 235.729 -45.1467 224.699 -50.4921 211.794C-55.8375 198.889 -57.2361 184.688 -54.5111 170.988C-51.786 157.289 -45.0596 144.704 -35.1825 134.827C-25.3054 124.95 -12.7213 118.224 0.978653 115.499C14.6786 112.774 28.8789 114.172 41.7839 119.518C54.6889 124.863 65.7191 133.915 73.4794 145.53C81.2398 157.144 85.3819 170.798 85.3819 184.767C85.3819 203.498 77.9411 221.461 64.6963 234.706C51.4516 247.951 33.4878 255.392 14.7569 255.392Z" fill="#E6E6E6"/>
</svg>
