<svg width="103" height="30" viewBox="0 0 103 30" fill="none" xmlns="http://www.w3.org/2000/svg">
<path d="M2 13C0.89543 13 0 13.8954 0 15C0 16.1046 0.89543 17 2 17L2 13ZM102.414 16.4142C103.195 15.6332 103.195 14.3668 102.414 13.5858L89.6863 0.857864C88.9052 0.0768156 87.6389 0.0768156 86.8579 0.857864C86.0768 1.63891 86.0768 2.90524 86.8579 3.68629L98.1716 15L86.8579 26.3137C86.0768 27.0948 86.0768 28.3611 86.8579 29.1421C87.6389 29.9232 88.9052 29.9232 89.6863 29.1421L102.414 16.4142ZM2 17L101 17V13L2 13L2 17Z" fill="#171E53"/>
</svg>
