<svg width="31" height="55" viewBox="0 0 31 55" fill="none" xmlns="http://www.w3.org/2000/svg">
<path d="M17.5 2.125C17.5 1.02043 16.6046 0.125 15.5 0.125C14.3954 0.125 13.5 1.02043 13.5 2.125L17.5 2.125ZM14.0858 53.5392C14.8668 54.3203 16.1332 54.3203 16.9142 53.5392L29.6421 40.8113C30.4232 40.0302 30.4232 38.7639 29.6421 37.9829C28.8611 37.2018 27.5948 37.2018 26.8137 37.9829L15.5 49.2966L4.18629 37.9829C3.40524 37.2018 2.13891 37.2018 1.35786 37.9829C0.576816 38.7639 0.576816 40.0302 1.35786 40.8113L14.0858 53.5392ZM13.5 2.125L13.5 52.125H17.5L17.5 2.125L13.5 2.125Z" fill="#171E53"/>
</svg>
