<svg width="37" height="15" viewBox="0 0 37 15" fill="none" xmlns="http://www.w3.org/2000/svg">
<path fill-rule="evenodd" clip-rule="evenodd" d="M4.22572 14.214H0L20.1435 0.354654L20.2988 0.261929L20.4518 0.183117L20.621 0.1159L20.7856 0.0672171L20.9524 0.0278149L21.1263 0.00926693L21.2932 0H21.4694L21.6432 0.0162207L21.8147 0.0394021L21.9816 0.0834448L22.1509 0.127487L22.3178 0.187758L22.4777 0.261929L22.6307 0.34306L22.7767 0.428825L22.9181 0.528505L23.0456 0.637451L23.1754 0.748711L23.2867 0.878519L23.3887 1.00601L23.4791 1.14509L23.5625 1.28417L23.6297 1.43253L23.6831 1.59478L23.7201 1.75241L23.741 1.91467L23.7503 2.08852L23.741 2.26237L23.7086 2.43622L23.6622 2.61702L23.595 2.79783L18.7411 14.2395H12.8487L16.4115 5.846L4.22572 14.214Z" fill="white"/>
<path fill-rule="evenodd" clip-rule="evenodd" d="M36.7246 14.2511L34.0126 14.2488L29.6362 5.85067L26.0711 14.2418H20.1787L25.5101 1.73389L25.6167 1.50441L25.728 1.29115L25.8578 1.09181L25.9807 0.911002L26.1198 0.760333L26.2588 0.621251L26.4026 0.491443L26.5602 0.38481L26.7155 0.289778L26.8662 0.217913L27.0284 0.150696L27.186 0.104334L27.3553 0.0718851L27.5175 0.0440631L27.6844 0.0371094H27.8444L28.0043 0.0440631L28.1666 0.0718851L28.3288 0.0973798L28.4772 0.139102L28.6348 0.192419L28.7785 0.243415L28.9199 0.312953L29.0613 0.377856L29.1865 0.458988L29.3116 0.537799L29.4136 0.609657L29.4229 0.616611L36.7246 14.2511Z" fill="white"/>
</svg>
