<svg width="111" height="111" viewBox="0 0 111 111" fill="none" xmlns="http://www.w3.org/2000/svg">
<path d="M58.6055 70.125C66.2684 70.125 72.4805 63.913 72.4805 56.25C72.4805 48.587 66.2684 42.375 58.6055 42.375C50.9425 42.375 44.7305 48.587 44.7305 56.25C44.7305 63.913 50.9425 70.125 58.6055 70.125Z" stroke="#E30613" stroke-width="4"/>
<path d="M66.7685 10.703C65.0711 10 62.9159 10 58.6054 10C54.2949 10 52.1396 10 50.4422 10.703C49.3192 11.1679 48.2988 11.8495 47.4393 12.709C46.5799 13.5684 45.8982 14.5888 45.4334 15.7119C45.0079 16.7432 44.8367 17.9504 44.772 19.7033C44.7432 20.9705 44.3927 22.2095 43.7536 23.3041C43.1145 24.3987 42.2076 25.3129 41.1182 25.9609C40.0124 26.5808 38.7671 26.9095 37.4993 26.9159C36.2316 26.9224 34.983 26.6065 33.8709 25.9979C32.3169 25.1746 31.193 24.7214 30.0784 24.5734C27.6471 24.2537 25.1883 24.9124 23.2426 26.4049C21.7904 27.5287 20.7081 29.3926 18.5529 33.125C16.3976 36.8574 15.3154 38.7212 15.0795 40.5481C14.9205 41.7527 15.0005 42.9768 15.3147 44.1505C15.629 45.3242 16.1714 46.4245 16.911 47.3885C17.5955 48.2765 18.5529 49.0211 20.0375 49.9554C22.2251 51.329 23.6311 53.6692 23.6311 56.25C23.6311 58.8308 22.2251 61.171 20.0375 62.54C18.5529 63.4789 17.5909 64.2235 16.911 65.1115C16.1714 66.0755 15.629 67.1758 15.3147 68.3495C15.0005 69.5232 14.9205 70.7473 15.0795 71.9519C15.32 73.7741 16.3976 75.6426 18.5482 79.375C20.7081 83.1074 21.7857 84.9712 23.2426 86.0951C24.2066 86.8347 25.3069 87.3771 26.4806 87.6914C27.6543 88.0056 28.8784 88.0856 30.083 87.9266C31.193 87.7786 32.3169 87.3254 33.8709 86.5021C34.983 85.8935 36.2316 85.5776 37.4993 85.5841C38.7671 85.5905 40.0124 85.9192 41.1182 86.5391C43.3521 87.8341 44.6795 90.216 44.772 92.7968C44.8367 94.5543 45.0032 95.7567 45.4334 96.7881C45.8982 97.9112 46.5799 98.9316 47.4393 99.791C48.2988 100.65 49.3192 101.332 50.4422 101.797C52.1396 102.5 54.2949 102.5 58.6054 102.5C62.9159 102.5 65.0711 102.5 66.7685 101.797C67.8915 101.332 68.9119 100.65 69.7714 99.791C70.6308 98.9316 71.3125 97.9112 71.7774 96.7881C72.2029 95.7567 72.374 94.5543 72.4387 92.7968C72.5312 90.216 73.8586 87.8295 76.0925 86.5391C77.1983 85.9192 78.4436 85.5905 79.7114 85.5841C80.9791 85.5776 82.2277 85.8935 83.3399 86.5021C84.8939 87.3254 86.0177 87.7786 87.1277 87.9266C88.3323 88.0856 89.5564 88.0056 90.7301 87.6914C91.9038 87.3771 93.0041 86.8347 93.9681 86.0951C95.425 84.9759 96.5026 83.1074 98.6579 79.375C100.813 75.6426 101.895 73.7788 102.131 71.9519C102.29 70.7473 102.21 69.5232 101.896 68.3495C101.582 67.1758 101.039 66.0755 100.3 65.1115C99.6152 64.2235 98.6579 63.4789 97.1732 62.5446C96.0898 61.8861 95.1915 60.9629 94.5629 59.8618C93.9342 58.7607 93.5959 57.5178 93.5796 56.25C93.5796 53.6692 94.9856 51.329 97.1732 49.96C98.6579 49.0211 99.6199 48.2765 100.3 47.3885C101.039 46.4245 101.582 45.3242 101.896 44.1505C102.21 42.9768 102.29 41.7527 102.131 40.5481C101.891 38.7259 100.813 36.8574 98.6625 33.125C96.5026 29.3926 95.425 27.5287 93.9681 26.4049C93.0041 25.6653 91.9038 25.1229 90.7301 24.8086C89.5564 24.4944 88.3323 24.4144 87.1277 24.5734C86.0177 24.7214 84.8939 25.1746 83.3352 25.9979C82.2237 26.6057 80.9759 26.9211 79.7091 26.9147C78.4422 26.9082 77.1978 26.58 76.0925 25.9609C75.0031 25.3129 74.0962 24.3987 73.4571 23.3041C72.818 22.2095 72.4675 20.9705 72.4387 19.7033C72.374 17.9458 72.2075 16.7432 71.7774 15.7119C71.3125 14.5888 70.6308 13.5684 69.7714 12.709C68.9119 11.8495 67.8915 11.1679 66.7685 10.703Z" stroke="#E30613" stroke-width="4"/>
</svg>
