<svg width="240" height="370" viewBox="0 0 240 370" fill="none" xmlns="http://www.w3.org/2000/svg">
<path d="M210.375 188.814C210.446 186.271 210.446 183.729 210.375 181.186L236.718 148.275C238.099 146.547 239.056 144.519 239.509 142.354C239.963 140.188 239.902 137.947 239.331 135.81C235.005 119.579 228.545 103.994 220.121 89.4621C219.017 87.5608 217.485 85.9435 215.646 84.7389C213.806 83.5342 211.712 82.7756 209.528 82.5232L167.647 77.8619C165.905 76.0257 164.139 74.2601 162.35 72.5651L157.406 30.5785C157.152 28.3929 156.391 26.2969 155.183 24.4576C153.975 22.6184 152.354 21.0867 150.45 19.9848C135.919 11.5671 120.333 5.11905 104.102 0.810074C101.965 0.239074 99.7234 0.178057 97.5582 0.631941C95.3931 1.08583 93.3648 2.04192 91.6368 3.4232L58.8138 29.6251H51.1863L18.2751 3.33492C16.5471 1.95364 14.5188 0.997546 12.3537 0.543662C10.1885 0.0897772 7.94701 0.15079 5.80975 0.721791C-10.4208 5.04805 -26.0058 11.5077 -40.5379 19.9318C-42.4392 21.0358 -44.0565 22.5683 -45.2611 24.4075C-46.4658 26.2466 -47.2244 28.3415 -47.4768 30.5255L-52.1381 72.4768C-53.9743 74.2306 -55.7399 75.9963 -57.4349 77.7737L-99.4215 82.5938C-101.607 82.8481 -103.703 83.6095 -105.542 84.8173C-107.382 86.025 -108.913 87.6458 -110.015 89.5504C-118.431 104.084 -124.885 119.669 -129.208 135.898C-129.776 138.037 -129.834 140.279 -129.377 142.444C-128.92 144.609 -127.961 146.637 -126.577 148.363L-100.375 181.186V188.814L-126.665 221.725C-128.046 223.453 -129.002 225.481 -129.456 227.646C-129.91 229.812 -129.849 232.053 -129.278 234.19C-124.952 250.421 -118.492 266.006 -110.068 280.538C-108.964 282.439 -107.432 284.057 -105.593 285.261C-103.753 286.466 -101.658 287.225 -99.4745 287.477L-57.5938 292.138C-55.84 293.974 -54.0743 295.74 -52.297 297.435L-47.4062 339.422C-47.1519 341.607 -46.3905 343.703 -45.1827 345.543C-43.975 347.382 -42.3542 348.913 -40.4496 350.015C-25.9156 358.431 -10.3309 364.885 5.89804 369.208C8.03665 369.776 10.2789 369.834 12.4441 369.378C14.6093 368.921 16.6369 367.961 18.3633 366.577L51.1863 340.375C53.7288 340.446 56.2713 340.446 58.8138 340.375L91.7251 366.718C93.4531 368.099 95.4813 369.056 97.6465 369.509C99.8116 369.963 102.053 369.902 104.19 369.331C120.424 365.013 136.01 358.553 150.538 350.121C152.439 349.017 154.057 347.485 155.261 345.646C156.466 343.806 157.225 341.712 157.477 339.528L162.138 297.647C163.974 295.905 165.74 294.139 167.435 292.35L209.422 287.406C211.607 287.152 213.703 286.391 215.543 285.183C217.382 283.975 218.913 282.354 220.015 280.45C228.431 265.916 234.885 250.331 239.208 234.102C239.776 231.963 239.834 229.721 239.378 227.556C238.921 225.391 237.961 223.363 236.577 221.637L210.375 188.814ZM55.0001 255.625C41.0318 255.625 27.3771 251.483 15.7629 243.723C4.1487 235.962 -4.90349 224.932 -10.2489 212.027C-15.5944 199.122 -16.993 184.922 -14.2679 171.222C-11.5428 157.522 -4.81643 144.938 5.06065 135.061C14.9377 125.184 27.5219 118.457 41.2218 115.732C54.9217 113.007 69.1221 114.406 82.0271 119.751C94.9321 125.097 105.962 134.149 113.723 145.763C121.483 157.377 125.625 171.032 125.625 185C125.625 203.731 118.184 221.695 104.939 234.939C91.6947 248.184 73.731 255.625 55.0001 255.625Z" fill="#E8E8E8"/>
</svg>
