<svg width="357" height="567" viewBox="0 0 357 567" fill="none" xmlns="http://www.w3.org/2000/svg">
<path d="M521.719 289.347C521.827 285.449 521.827 281.551 521.719 277.653L562.108 227.194C564.225 224.544 565.691 221.435 566.387 218.115C567.083 214.796 566.99 211.359 566.114 208.082C559.481 183.198 549.577 159.303 536.662 137.023C534.969 134.108 532.619 131.628 529.8 129.781C526.98 127.934 523.768 126.771 520.419 126.384L456.209 119.237C453.538 116.422 450.831 113.715 448.088 111.116L440.508 46.7431C440.118 43.3922 438.951 40.1786 437.099 37.3587C435.247 34.5387 432.762 32.1904 429.842 30.5009C407.563 17.5951 383.667 7.70904 358.783 1.10258C355.506 0.227127 352.069 0.133577 348.75 0.829466C345.43 1.52536 342.32 2.99123 339.671 5.10898L289.347 45.2813H277.653L227.194 4.97363C224.544 2.85588 221.435 1.39001 218.115 0.694117C214.796 -0.00177214 211.359 0.0917724 208.082 0.967222C183.198 7.60018 159.303 17.504 137.023 30.4197C134.108 32.1123 131.628 34.462 129.781 37.2817C127.934 40.1015 126.771 43.3134 126.384 46.6619L119.237 110.981C116.422 113.67 113.715 116.377 111.116 119.102L46.7431 126.492C43.3922 126.882 40.1786 128.049 37.3587 129.901C34.5387 131.753 32.1904 134.238 30.5009 137.158C17.5978 159.441 7.70325 183.336 1.07551 208.218C0.203758 211.496 0.114597 214.934 0.815206 218.254C1.51581 221.574 2.98659 224.682 5.10898 227.329L45.2813 277.653V289.347L4.97363 339.806C2.85588 342.456 1.39001 345.565 0.694117 348.885C-0.00177214 352.205 0.0917724 355.641 0.967222 358.918C7.60018 383.802 17.504 407.697 30.4197 429.978C32.1123 432.893 34.462 435.372 37.2817 437.219C40.1015 439.066 43.3134 440.229 46.6619 440.616L110.873 447.763C113.562 450.578 116.269 453.285 118.994 455.884L126.492 520.257C126.882 523.608 128.049 526.822 129.901 529.641C131.753 532.461 134.238 534.81 137.158 536.499C159.441 549.402 183.336 559.297 208.218 565.925C211.496 566.796 214.934 566.886 218.254 566.185C221.574 565.484 224.682 564.014 227.329 561.891L277.653 521.719C281.551 521.827 285.449 521.827 289.347 521.719L339.806 562.108C342.456 564.225 345.565 565.691 348.885 566.387C352.205 567.083 355.641 566.99 358.918 566.114C383.806 559.493 407.703 549.589 429.978 536.662C432.893 534.969 435.372 532.619 437.219 529.8C439.066 526.98 440.229 523.768 440.616 520.419L447.763 456.209C450.578 453.538 453.285 450.831 455.884 448.088L520.257 440.508C523.608 440.118 526.822 438.951 529.641 437.099C532.461 435.247 534.81 432.762 536.499 429.842C549.402 407.559 559.297 383.665 565.925 358.783C566.796 355.504 566.886 352.066 566.185 348.746C565.484 345.427 564.014 342.318 561.891 339.671L521.719 289.347ZM283.5 391.781C262.084 391.781 241.149 385.431 223.342 373.533C205.535 361.635 191.657 344.723 183.461 324.938C175.266 305.152 173.121 283.38 177.299 262.375C181.477 241.371 191.79 222.077 206.934 206.934C222.077 191.79 241.371 181.477 262.375 177.299C283.38 173.121 305.152 175.266 324.938 183.461C344.723 191.657 361.635 205.535 373.533 223.342C385.431 241.149 391.781 262.084 391.781 283.5C391.781 312.218 380.373 339.76 360.066 360.066C339.76 380.373 312.218 391.781 283.5 391.781Z" fill="#E8E8E8"/>
</svg>
