<svg width="1200" height="600" viewBox="0 0 1200 600" fill="none" xmlns="http://www.w3.org/2000/svg">
<path d="M200.5 400.5H399.5V599.5H200.5V400.5ZM599.5 599.5H400.5V400.5H599.5V599.5ZM600.5 599.5V400.5H799.5V599.5H600.5ZM799.5 399.5H600.5V200.5H799.5V399.5ZM800.5 599.5V400.5H999.5V599.5H800.5ZM999.5 399.5H800.5V200.5H999.5V399.5ZM1000.5 599.5V400.5H1199.5V599.5H1000.5ZM199.5 599.5H0.5V400.5H199.5V599.5ZM0.5 199.5V0.5H199.5V199.5H0.5ZM200.5 199.5V0.5H399.5V199.5H200.5ZM400.5 199.5V0.5H599.5V199.5H400.5ZM600.5 199.5V0.5H799.5V199.5H600.5ZM800.5 199.5V0.5H999.5V199.5H800.5ZM1000.5 199.5V0.5H1199.5V199.5H1000.5ZM1199.5 200.5V399.5H1000.5V200.5H1199.5ZM599.5 200.5V399.5H400.5V200.5H599.5ZM200.5 200.5H399.5V399.5H200.5V200.5ZM199.5 200.5V399.5H0.5V200.5H199.5Z" stroke="url(#paint0_radial_289_253)"/>
<defs>
<radialGradient id="paint0_radial_289_253" cx="0" cy="0" r="1" gradientUnits="userSpaceOnUse" gradientTransform="translate(600 300) rotate(90) scale(300 600)">
<stop stop-color="#171E53" stop-opacity="0.28"/>
<stop offset="1" stop-color="#171E53" stop-opacity="0"/>
</radialGradient>
</defs>
</svg>
