<svg width="96" height="28" viewBox="0 0 96 28" fill="none" xmlns="http://www.w3.org/2000/svg">
<path d="M33.996 9.56738L35.7181 14.4149C35.9733 15.2441 36.2284 15.9458 36.4198 16.6474H36.4835C36.6749 15.9458 36.93 15.2441 37.1851 14.4149L38.8435 9.56738H40.5019L37.1214 18.1782H35.6543L32.4014 9.56738H33.996Z" fill="white"/>
<path d="M43.6902 7.0798C43.6902 7.59007 43.3075 8.03656 42.6696 8.03656C42.0956 8.03656 41.7129 7.59007 41.7129 7.0798C41.7129 6.56953 42.0956 6.12305 42.6696 6.12305C43.3075 6.12305 43.6902 6.56953 43.6902 7.0798ZM41.968 18.1782V9.56736H43.5626V18.1782H41.968Z" fill="white"/>
<path d="M52.1739 16.0739C52.1739 16.8393 52.2376 17.5409 52.3014 18.115H50.8982L50.7706 17.0306H50.7068C50.1966 17.7323 49.3036 18.3063 48.0917 18.3063C46.3695 18.3063 45.4766 17.0944 45.4766 15.8187C45.4766 13.7139 47.3263 12.5658 50.643 12.6296V12.4382C50.643 11.7366 50.4517 10.4609 48.6657 10.4609C47.8366 10.4609 47.0074 10.716 46.3696 11.0987L45.9868 10.0144C46.6885 9.56795 47.7728 9.24902 48.8571 9.24902C51.4722 9.24902 52.1101 11.035 52.1101 12.7571V16.0739H52.1739ZM50.7068 13.7777C48.9847 13.7139 47.0712 14.0328 47.0712 15.6912C47.0712 16.7117 47.7728 17.1582 48.5382 17.1582C49.6863 17.1582 50.3879 16.4566 50.643 15.6912C50.7068 15.4998 50.7068 15.3085 50.7068 15.1809V13.7777Z" fill="white"/>
<path d="M55.1727 9.56738L56.8949 14.4149C57.15 15.2441 57.4051 15.9458 57.5965 16.6474H57.6603C57.8516 15.9458 58.1068 15.2441 58.3619 14.4149L60.0203 9.56738H61.6787L58.2981 18.1782H56.8311L53.5781 9.56738H55.1727Z" fill="white"/>
<path d="M63.8465 14.1598C63.9103 16.2646 65.2498 17.1576 66.7806 17.1576C67.9287 17.1576 68.6303 16.9662 69.1406 16.7111L69.3957 17.8592C68.8217 18.1143 67.8649 18.4333 66.5255 18.4333C63.8465 18.4333 62.252 16.6473 62.252 14.0322C62.252 11.417 63.7828 9.37598 66.3341 9.37598C69.1406 9.37598 69.906 11.8635 69.906 13.3943C69.906 13.7133 69.906 13.9684 69.8422 14.096H63.8465V14.1598ZM68.5027 13.0116C68.5027 12.0549 68.1201 10.4603 66.3341 10.4603C64.7395 10.4603 64.0379 11.9273 63.9103 13.0116H68.5027Z" fill="white"/>
<path d="M71.9476 12.2462C71.9476 11.2257 71.9476 10.3327 71.8838 9.56732H73.287L73.3508 11.2895H73.4146C73.7973 10.1414 74.754 9.37598 75.8384 9.37598C76.0297 9.37598 76.0935 9.37596 76.2849 9.43974V10.9068C76.0935 10.843 75.9659 10.843 75.7746 10.843C74.6903 10.843 73.8611 11.6722 73.6697 12.8203C73.6059 13.0116 73.6059 13.3306 73.6059 13.5219V18.1143H72.0113V12.2462H71.9476Z" fill="white"/>
<path d="M78.8361 9.56738L80.5583 14.4149C80.8134 15.2441 81.0685 15.9458 81.2599 16.6474H81.3237C81.515 15.9458 81.7702 15.2441 82.0253 14.4149L83.6837 9.56738H85.342L81.9615 18.1782H80.4945L77.1777 9.56738H78.8361Z" fill="white"/>
<path d="M88.531 7.0798C88.531 7.59007 88.1483 8.03656 87.5105 8.03656C86.9364 8.03656 86.5537 7.59007 86.5537 7.0798C86.5537 6.56953 86.9364 6.12305 87.5105 6.12305C88.1483 6.12305 88.531 6.56953 88.531 7.0798ZM86.8088 18.1782V9.56736H88.4034V18.1782H86.8088Z" fill="white"/>
<path d="M92.8689 7.46191V9.50298H95.1014V10.7149H92.8689V15.3711C92.8689 16.4554 93.1878 17.0295 94.017 17.0295C94.4635 17.0295 94.7187 16.9657 94.91 16.9019L94.9738 18.1138C94.6549 18.2414 94.2084 18.3051 93.5706 18.3051C92.8689 18.3051 92.2311 18.05 91.8484 17.6673C91.4019 17.157 91.2106 16.3916 91.2106 15.3711V10.6511H89.8711V9.56677H91.2106V7.97218L92.8689 7.46191Z" fill="white"/>
<path d="M11.6083 0L13.3304 4.84757C13.5856 5.67675 13.8407 6.37838 14.032 7.08H14.0958C14.2872 6.37838 14.5423 5.67675 14.7975 4.84757L16.4558 0H18.1142L14.7337 8.6108H13.2666L10.0137 0H11.6083Z" fill="white"/>
<path d="M2.04104 6.95164L6.88861 8.61002C7.7178 8.86516 8.41941 9.12028 9.05725 9.4392L9.12104 9.37543C8.67455 8.80138 8.29185 8.16354 7.84536 7.39814L5.10266 3.06083L6.12321 1.78516L10.7794 9.82191L9.82265 10.97L1.02051 8.16353L2.04104 6.95164Z" fill="white"/>
<path d="M1.46703 18.7521L5.80432 16.0094C6.50594 15.5629 7.14378 15.1802 7.8454 14.8613V14.7975C7.07999 14.7337 6.37838 14.6699 5.4854 14.6061L0.382706 14.0321L0 12.4375L9.18485 13.8407L9.50377 15.3078L1.78595 20.4105L1.46703 18.7521Z" fill="white"/>
<path d="M10.3333 26.5348L10.9073 21.4321C10.9711 20.6029 11.0987 19.8375 11.2262 19.1359H11.1624C10.6522 19.71 10.1419 20.2203 9.50406 20.8581L5.86839 24.4937L4.40137 23.7921L11.2262 17.4775L12.5657 18.1154L11.8003 27.3002L10.3333 26.5348Z" fill="white"/>
<path d="M22.0053 24.4289L18.3696 20.7933C17.7955 20.2192 17.2215 19.6451 16.775 19.0711H16.7112C16.8388 19.7727 16.9026 20.5381 17.0301 21.3673L17.6042 26.47L16.1372 27.1716L15.4355 17.923L16.775 17.2852L23.4723 23.6635L22.0053 24.4289Z" fill="white"/>
<path d="M27.6172 14.0314L22.5145 14.6055C21.6853 14.733 20.9199 14.7968 20.1545 14.7968V14.8606C20.7923 15.1795 21.4301 15.626 22.1955 16.0725L26.5328 18.7514L26.1501 20.346L18.4961 15.1158L18.815 13.6487L27.9361 12.373L27.6172 14.0314Z" fill="white"/>
<path d="M22.9615 3.18907L20.2188 7.52636C19.7724 8.22798 19.3259 8.86581 18.8794 9.43987L18.9432 9.50365C19.6448 9.18474 20.3464 8.99339 21.1118 8.67447L25.9594 6.95231L26.9799 8.22798L18.114 10.9707L17.1572 9.82257L21.8772 1.84961L22.9615 3.18907Z" fill="white"/>
</svg>
